<svg width="581" height="79" viewBox="0 0 581 79" fill="none" xmlns="http://www.w3.org/2000/svg">
<path d="M344.229 72.8933H334.117L338.588 45.2178H352.532L344.229 72.8933Z" fill="white"/>
<path d="M412.721 53.4087C416.341 53.4087 419.534 52.5217 422.301 50.7476C425.14 48.9025 427.34 46.3479 428.901 43.0836C430.462 39.8193 431.243 36.1292 431.243 32.0134C431.243 27.8976 430.462 24.243 428.901 21.0497C427.34 17.8563 425.14 15.3726 422.301 13.5986C419.534 11.7535 416.341 10.831 412.721 10.831C409.528 10.831 406.512 11.789 403.674 13.705C400.835 15.621 398.564 18.2111 396.861 21.4754C395.158 24.7397 394.307 28.2524 394.307 32.0134C394.307 35.8454 395.158 39.429 396.861 42.7643C398.564 46.0286 400.835 48.6187 403.674 50.5347C406.512 52.4507 409.528 53.4087 412.721 53.4087ZM390.262 7.10547H394.2V19.7723C395.903 16.2951 398.458 13.3857 401.864 11.0439C405.27 8.63117 408.925 7.4248 412.828 7.4248C417.157 7.4248 420.989 8.48924 424.324 10.6181C427.73 12.676 430.391 15.5855 432.307 19.3465C434.223 23.0366 435.181 27.2589 435.181 32.0134C435.181 36.8389 434.223 41.1321 432.307 44.8932C430.391 48.6542 427.73 51.5991 424.324 53.728C420.989 55.7859 417.157 56.8149 412.828 56.8149C408.499 56.8149 404.667 55.5731 401.332 53.0894C398.068 50.5347 395.69 47.6252 394.2 44.3609V78.3166H390.262V7.10547Z" fill="white"/>
<path d="M460.462 56.602C456.133 56.602 452.266 55.5731 448.859 53.5151C445.524 51.3862 442.898 48.4413 440.982 44.6803C439.066 40.9192 438.108 36.6615 438.108 31.907C438.108 27.1525 439.066 22.8947 440.982 19.1337C442.898 15.3726 445.524 12.4632 448.859 10.4052C452.266 8.27635 456.133 7.21191 460.462 7.21191C464.649 7.21191 468.374 8.34732 471.638 10.6181C474.903 12.818 477.351 15.7274 478.983 19.3465V7.10547H482.815V56.1762H478.983V44.4674C477.564 47.5897 475.187 50.3928 471.851 52.8765C468.516 55.3602 464.72 56.602 460.462 56.602ZM442.047 31.907C442.047 36.0228 442.827 39.7129 444.389 42.9772C445.95 46.1705 448.114 48.6542 450.882 50.4283C453.72 52.2023 456.914 53.0894 460.462 53.0894C463.726 53.0894 466.777 52.2023 469.616 50.4283C472.454 48.5832 474.725 46.0286 476.428 42.7643C478.131 39.5 478.983 35.8809 478.983 31.907C478.983 27.933 478.131 24.3139 476.428 21.0497C474.725 17.7854 472.454 15.2662 469.616 13.4921C466.777 11.6471 463.726 10.7246 460.462 10.7246C456.914 10.7246 453.72 11.6471 450.882 13.4921C448.114 15.2662 445.95 17.7499 444.389 20.9432C442.827 24.1365 442.047 27.7911 442.047 31.907Z" fill="white"/>
<path d="M510.752 53.1958C514.229 53.1958 517.422 52.2378 520.332 50.3218C523.241 48.4058 525.547 45.8157 527.251 42.5514C528.954 39.2871 529.805 35.739 529.805 31.907C529.805 28.1459 528.954 24.6688 527.251 21.4754C525.547 18.2111 523.241 15.621 520.332 13.705C517.422 11.789 514.229 10.831 510.752 10.831C507.275 10.831 504.152 11.718 501.385 13.4921C498.688 15.2662 496.559 17.7854 494.998 21.0497C493.508 24.243 492.763 27.8621 492.763 31.907C492.763 36.0228 493.508 39.7129 494.998 42.9772C496.559 46.1705 498.688 48.6897 501.385 50.5347C504.152 52.3088 507.275 53.1958 510.752 53.1958ZM488.824 31.907C488.824 27.1525 489.747 22.9302 491.592 19.2401C493.437 15.55 496.027 12.676 499.362 10.6181C502.697 8.48924 506.494 7.4248 510.752 7.4248C514.513 7.4248 518.203 8.63117 521.822 11.0439C525.512 13.4566 528.138 16.3661 529.699 19.7723V7.10547H533.531V53.0894C533.531 57.9858 532.644 62.35 530.87 66.182C529.096 70.014 526.541 72.9944 523.206 75.1233C519.941 77.2522 516.109 78.3166 511.71 78.3166C507.665 78.3166 504.188 77.6425 501.278 76.2942C498.369 75.0169 495.672 72.6751 493.188 69.2689L496.169 66.8207C498.298 69.7301 500.569 71.7881 502.981 72.9944C505.394 74.2008 508.304 74.804 511.71 74.804C517.174 74.804 521.538 72.746 524.802 68.6302C528.067 64.5144 529.699 59.1567 529.699 52.5571V43.8287C528.492 47.5897 526.115 50.6766 522.567 53.0894C519.09 55.5021 515.151 56.7085 510.752 56.7085C506.494 56.7085 502.697 55.644 499.362 53.5151C496.027 51.3862 493.437 48.4413 491.592 44.6803C489.747 40.9192 488.824 36.6615 488.824 31.907Z" fill="white"/>
<path d="M559.817 56.2827C555.488 56.2827 551.621 55.2537 548.214 53.1958C544.808 51.0669 542.147 48.1574 540.231 44.4674C538.315 40.7063 537.357 36.4486 537.357 31.6941C537.357 26.9396 538.315 22.6818 540.231 18.9208C542.147 15.1597 544.808 12.2503 548.214 10.1923C551.621 8.06347 555.488 6.99902 559.817 6.99902C564.216 6.99902 567.8 7.95702 570.568 9.87301C573.406 11.718 575.109 13.1373 575.677 14.1308C576.316 15.1243 577.38 17.1467 578.87 20.1981C580.29 23.5334 580.999 27.7911 580.999 32.9714H541.189C541.189 36.8034 541.97 40.2451 543.531 43.2965C545.163 46.2769 547.363 48.6187 550.13 50.3218C552.969 52.0249 556.198 52.8765 559.817 52.8765C563.578 52.8765 566.558 52.2378 568.758 50.9605C571.029 49.6122 572.413 48.5477 572.909 47.7671C573.406 46.9866 574.151 45.6028 575.145 43.6158L578.445 45.2125C577.096 48.3348 574.896 50.9605 571.845 53.0894C568.794 55.2182 564.784 56.2827 559.817 56.2827ZM577.167 29.4587C577.096 26.3364 576.351 23.285 574.932 20.3045C573.584 17.2531 571.597 14.8049 568.971 12.9599C566.416 11.1149 563.365 10.2633 559.817 10.4052C554.353 10.4052 549.882 12.1793 546.405 15.7274C542.999 19.2046 541.26 23.7817 541.189 29.4587H577.167Z" fill="white"/>
<g clip-path="url(#clip0_1648_6520)">
<path d="M274.352 -0.000187728C264.796 -0.000187728 256.278 4.38023 250.743 11.1851C245.207 4.38023 236.689 -0.000187728 227.134 -0.000187728C217.579 -0.000187728 209.068 4.37651 203.529 11.174C197.993 4.37651 189.479 -0.000187728 179.924 -0.000187728C170.368 -0.000187728 161.85 4.38023 156.315 11.1851C150.779 4.38023 142.261 -0.000187728 132.706 -0.000187728C120.37 -0.000187728 109.754 7.2844 105.074 17.6851C100.389 7.2844 89.7738 -0.000187728 77.4374 -0.000187728C76.461 -0.000187728 75.5074 0.0518716 74.4816 0.144835C74.246 0.167146 74.0142 0.200612 73.5887 0.25639C72.9466 0.338198 72.3122 0.427442 71.6967 0.542717C71.4193 0.594776 71.1268 0.657991 70.7126 0.754672C70.5987 0.780702 70.4885 0.81045 70.3783 0.83648C69.9034 0.948035 69.4247 1.06331 68.9536 1.19718C68.7446 1.25667 68.5014 1.33476 68.2735 1.40541C67.5782 1.62481 66.8867 1.85907 66.2143 2.12681C66.0813 2.17887 65.9597 2.23093 65.8305 2.28298C62.2782 3.7518 59.007 5.88623 56.1993 8.63794C50.4737 14.2418 47.3203 21.69 47.3203 29.6141C47.3203 33.5743 48.1068 37.4156 49.6113 40.9631C49.6113 40.9668 49.6151 40.9742 49.6189 40.9779C49.9646 41.7923 50.356 42.588 50.7777 43.3727C50.8385 43.4916 50.9031 43.6069 50.9676 43.7259C51.3286 44.3804 51.7275 45.0125 52.1416 45.6409C52.2632 45.838 52.3886 46.0351 52.5064 46.1987C53.0231 46.9424 53.5702 47.6601 54.1515 48.3517C59.915 55.1827 68.4027 59.102 77.445 59.102C87.8893 59.102 97.1064 53.8849 102.528 45.9756V59.1317H115.696V29.5509H115.685C115.685 20.3624 123.322 12.8845 132.714 12.8845C142.105 12.8845 149.742 20.3587 149.742 29.5509H149.753V59.1317H162.922V29.5509H162.91C162.91 20.3624 170.547 12.8845 179.939 12.8845C189.331 12.8845 196.891 20.2918 196.96 29.4245C196.96 29.4654 196.952 29.5063 196.952 29.5472H196.964V59.128H210.132V29.5472C210.132 29.5063 210.124 29.4654 210.124 29.4245C210.193 20.2918 217.799 12.8845 227.145 12.8845C236.492 12.8845 244.174 20.3587 244.174 29.5509C244.174 45.8455 257.718 59.102 274.367 59.102V46.2136C264.979 46.2136 257.338 38.7394 257.338 29.5472C257.338 20.355 264.975 12.8808 274.367 12.8808C283.759 12.8808 291.395 20.355 291.395 29.5472V59.128H304.564V29.5472C304.564 13.2526 291.019 -0.00390625 274.371 -0.00390625L274.352 -0.000187728ZM77.4374 46.2173C72.3387 46.2173 67.5478 44.0048 64.2918 40.145C63.9651 39.762 63.6649 39.3604 63.3002 38.8249L63.1064 38.5237C62.9165 38.2337 62.7265 37.9436 62.5517 37.6387L62.2934 37.1441C62.1452 36.8541 61.9932 36.5678 61.8755 36.3037L61.6247 35.7088C61.5107 35.4299 61.4043 35.1436 61.2866 34.794L61.1118 34.266C61.0206 33.9536 60.9408 33.6376 60.8079 33.0835L60.7243 32.7228C60.6559 32.377 60.6103 32.0274 60.5685 31.7002L60.4925 31.1685C60.4393 30.6367 60.4089 30.0975 60.4089 29.5546C60.4089 24.5644 62.6695 19.8753 66.598 16.696C66.9969 16.3762 67.411 16.075 67.9847 15.7031L68.2849 15.5209C68.566 15.3424 68.8548 15.1639 69.1891 14.9817L69.6716 14.74C69.9604 14.595 70.2529 14.45 70.5835 14.3087L71.1268 14.0893C71.4307 13.9703 71.7347 13.8587 72.0652 13.7546L72.6199 13.5799C72.9428 13.4869 73.2696 13.4088 73.7711 13.2972L74.1966 13.2043C74.5499 13.1373 74.9071 13.0927 75.2528 13.0481L75.7657 12.9737C76.3166 12.9217 76.8713 12.8919 77.4336 12.8919C86.8217 12.8919 94.4621 20.3662 94.4621 29.5583C94.4621 38.7505 86.8255 46.2248 77.4336 46.2248L77.4374 46.2173Z" fill="white"/>
<path d="M30.1931 46.2175C20.805 46.2175 13.1646 38.7433 13.1646 29.5511C13.1646 20.3589 20.8012 12.8847 30.1931 12.8847C38.4034 12.8847 45.2763 18.6038 46.8721 26.1858C47.5217 20.5188 49.7709 15.205 53.4107 10.7502C47.8675 4.20565 39.5394 0 30.1931 0C13.5445 0 0 13.2565 0 29.5511C0 45.8457 13.5445 59.1022 30.1931 59.1022C37.1914 59.1022 44.015 56.7037 49.4024 52.3493L41.0173 42.4135C37.9399 44.9011 34.1938 46.2175 30.1893 46.2175H30.1931Z" fill="white"/>
</g>
<defs>
<clipPath id="clip0_1648_6520">
<rect width="304.549" height="59.1357" fill="white"/>
</clipPath>
</defs>
</svg>
