<?xml version="1.0" encoding="UTF-8"?><svg id="Layer_2" xmlns="http://www.w3.org/2000/svg" width="54.4023" height="54.4014" viewBox="0 0 54.4023 54.4014"><defs><style>.cls-1{fill:#e8e8e8;}</style></defs><g id="_29"><path class="cls-1" d="M27.1992,0C12.1514,0,0,12.1504,0,27.1172c0,15.1299,12.1514,27.2842,27.1992,27.2842,14.9658,0,27.2031-12.1543,27.2031-27.2842C54.4023,12.1504,42.165,0,27.1992,0h0ZM27.1992,52.25h0c-13.8057,0-25.0518-11.1592-25.0518-25.1328C2.1474,13.3936,13.3935,2.1475,27.1992,2.1475c13.8096,0,24.97172,11.2461,24.97172,24.9697,0,13.9736-11.16212,25.1328-24.97172,25.1328h0ZM32.3262,22.4873h0l-1.8204-1.7373,5.045-5.124h.083l5.1269,5.124-1.8203,1.7373-3.3896-3.3066-3.2246,3.3066ZM16.8662,22.4873h0l-1.82128-1.7373,5.044-5.124h.083l5.12688,5.124-1.8193,1.7373-3.30758-3.3066-3.30572,3.3066ZM42.165,31.2529h0c-1.8203,6.2832-7.5224,10.8291-14.3877,10.8291-6.6963,0-12.48038-4.6289-14.3838-10.8291,3.2237,4.5459,8.4307,7.6036,14.3838,7.6036s11.3282-2.9756,14.3877-7.6036h0Z"/></g></svg>