<svg width="1460" height="213" viewBox="0 0 1460 213" fill="currentColor" xmlns="http://www.w3.org/2000/svg">
<path d="M879.318 186H859L867.983 130H896L879.318 186Z" fill="currentColor"/>
<path d="M1012.7 146.991C1022.32 146.991 1030.81 144.64 1038.16 139.939C1045.71 135.049 1051.56 128.279 1055.71 119.628C1059.86 110.978 1061.93 101.199 1061.93 90.291C1061.93 79.3836 1059.86 69.6985 1055.71 61.2358C1051.56 52.7731 1045.71 46.191 1038.16 41.4896C1030.81 36.6 1022.32 34.1552 1012.7 34.1552C1004.21 34.1552 996.195 36.694 988.65 41.7716C981.105 46.8493 975.069 53.7134 970.542 62.3642C966.015 71.0149 963.752 80.3239 963.752 90.291C963.752 100.446 966.015 109.943 970.542 118.782C975.069 127.433 981.105 134.297 988.65 139.375C996.195 144.452 1004.21 146.991 1012.7 146.991ZM953 24.2821H963.469V57.8507C967.996 48.6358 974.786 40.9254 983.84 34.7194C992.895 28.3254 1002.61 25.1284 1012.98 25.1284C1024.49 25.1284 1034.68 27.9492 1043.54 33.591C1052.59 39.0448 1059.67 46.7552 1064.76 56.7224C1069.85 66.5015 1072.4 77.691 1072.4 90.291C1072.4 103.079 1069.85 114.457 1064.76 124.424C1059.67 134.391 1052.59 142.196 1043.54 147.837C1034.68 153.291 1024.49 156.018 1012.98 156.018C1001.48 156.018 991.291 152.727 982.426 146.145C973.749 139.375 967.43 131.664 963.469 123.013V213H953V24.2821Z" fill="currentColor"/>
<path d="M1139.6 155.454C1128.09 155.454 1117.81 152.727 1108.76 147.273C1099.89 141.631 1092.91 133.827 1087.82 123.86C1082.73 113.893 1080.18 102.609 1080.18 90.009C1080.18 77.409 1082.73 66.1254 1087.82 56.1582C1092.91 46.191 1099.89 38.4806 1108.76 33.0269C1117.81 27.3851 1128.09 24.5642 1139.6 24.5642C1150.73 24.5642 1160.63 27.5731 1169.31 33.591C1177.98 39.4209 1184.49 47.1313 1188.83 56.7224V24.2821H1199.02V154.325H1188.83V123.296C1185.06 131.57 1178.74 138.999 1169.87 145.581C1161.01 152.163 1150.92 155.454 1139.6 155.454ZM1090.65 90.009C1090.65 100.916 1092.73 110.696 1096.88 119.346C1101.02 127.809 1106.78 134.391 1114.13 139.093C1121.68 143.794 1130.17 146.145 1139.6 146.145C1148.28 146.145 1156.39 143.794 1163.93 139.093C1171.48 134.203 1177.51 127.433 1182.04 118.782C1186.57 110.131 1188.83 100.54 1188.83 90.009C1188.83 79.4776 1186.57 69.8866 1182.04 61.2358C1177.51 52.5851 1171.48 45.909 1163.93 41.2075C1156.39 36.3179 1148.28 33.8731 1139.6 33.8731C1130.17 33.8731 1121.68 36.3179 1114.13 41.2075C1106.78 45.909 1101.02 52.491 1096.88 60.9537C1092.73 69.4164 1090.65 79.1015 1090.65 90.009Z" fill="currentColor"/>
<path d="M1273.27 146.427C1282.52 146.427 1291.01 143.888 1298.74 138.81C1306.47 133.733 1312.6 126.869 1317.13 118.218C1321.66 109.567 1323.92 100.164 1323.92 90.009C1323.92 80.0418 1321.66 70.8269 1317.13 62.3642C1312.6 53.7134 1306.47 46.8493 1298.74 41.7716C1291.01 36.694 1282.52 34.1552 1273.27 34.1552C1264.03 34.1552 1255.73 36.506 1248.38 41.2075C1241.21 45.909 1235.55 52.5851 1231.4 61.2358C1227.44 69.6985 1225.46 79.2895 1225.46 90.009C1225.46 100.916 1227.44 110.696 1231.4 119.346C1235.55 127.809 1241.21 134.485 1248.38 139.375C1255.73 144.076 1264.03 146.427 1273.27 146.427ZM1214.99 90.009C1214.99 77.409 1217.44 66.2194 1222.35 56.4403C1227.25 46.6612 1234.14 39.0448 1243 33.591C1251.87 27.9492 1261.96 25.1284 1273.27 25.1284C1283.27 25.1284 1293.08 28.3254 1302.7 34.7194C1312.51 41.1134 1319.49 48.8239 1323.64 57.8507V24.2821H1333.82V146.145C1333.82 159.121 1331.47 170.687 1326.75 180.842C1322.03 190.997 1315.24 198.896 1306.38 204.537C1297.7 210.179 1287.52 213 1275.82 213C1265.07 213 1255.83 211.213 1248.09 207.64C1240.36 204.255 1233.19 198.049 1226.59 189.022L1234.51 182.534C1240.17 190.245 1246.21 195.699 1252.62 198.896C1259.03 202.093 1266.77 203.691 1275.82 203.691C1290.35 203.691 1301.95 198.237 1310.62 187.33C1319.3 176.422 1323.64 162.224 1323.64 144.734V121.603C1320.43 131.57 1314.11 139.751 1304.68 146.145C1295.44 152.539 1284.97 155.736 1273.27 155.736C1261.96 155.736 1251.87 152.915 1243 147.273C1234.14 141.631 1227.25 133.827 1222.35 123.86C1217.44 113.893 1214.99 102.609 1214.99 90.009Z" fill="currentColor"/>
<path d="M1403.69 154.607C1392.19 154.607 1381.91 151.881 1372.85 146.427C1363.8 140.785 1356.73 133.075 1351.63 123.296C1346.54 113.328 1343.99 102.045 1343.99 89.4448C1343.99 76.8448 1346.54 65.5612 1351.63 55.594C1356.73 45.6269 1363.8 37.9164 1372.85 32.4627C1381.91 26.8209 1392.19 24 1403.69 24C1415.39 24 1424.92 26.5388 1432.27 31.6164C1439.82 36.506 1444.34 40.2672 1445.85 42.9C1447.55 45.5328 1450.38 50.8925 1454.34 58.9791C1458.11 67.8179 1460 79.1015 1460 92.8299H1354.18C1354.18 102.985 1356.26 112.106 1360.41 120.193C1364.74 128.091 1370.59 134.297 1377.95 138.81C1385.49 143.324 1394.08 145.581 1403.69 145.581C1413.69 145.581 1421.61 143.888 1427.46 140.503C1433.5 136.93 1437.18 134.109 1438.5 132.04C1439.82 129.972 1441.8 126.304 1444.44 121.039L1453.21 125.27C1449.63 133.545 1443.78 140.503 1435.67 146.145C1427.56 151.787 1416.9 154.607 1403.69 154.607ZM1449.81 83.5209C1449.63 75.2463 1447.64 67.1597 1443.87 59.2612C1440.29 51.1746 1435.01 44.6866 1428.03 39.797C1421.24 34.9075 1413.13 32.6507 1403.69 33.0269C1389.17 33.0269 1377.29 37.7284 1368.04 47.1313C1358.99 56.3463 1354.37 68.4761 1354.18 83.5209H1449.81Z" fill="currentColor"/>
<path d="M722.11 0.01C696.96 0.01 674.54 11.79 659.97 30.09C645.4 11.8 622.98 0.01 597.83 0.01C572.68 0.01 550.28 11.78 535.7 30.06C521.13 11.79 498.72 0.01 473.57 0.01C448.42 0.01 426 11.79 411.43 30.09C396.86 11.8 374.44 0.01 349.29 0.01C316.82 0.01 288.88 19.6 276.56 47.57C264.23 19.61 236.29 0.01 203.82 0.01C201.25 0.01 198.74 0.15 196.04 0.4C195.42 0.46 194.81 0.55 193.69 0.7C192 0.92 190.33 1.16 188.71 1.47C187.98 1.61 187.21 1.78 186.12 2.04C185.82 2.11 185.53 2.19 185.24 2.26C183.99 2.56 182.73 2.87 181.49 3.23C180.94 3.39 180.3 3.6 179.7 3.79C177.87 4.38 176.05 5.01 174.28 5.73C173.93 5.87 173.61 6.01 173.27 6.15C163.92 10.1 155.31 15.84 147.92 23.24C132.85 38.31 124.55 58.34 124.55 79.65C124.55 90.3 126.62 100.63 130.58 110.17C130.58 110.18 130.58 110.2 130.6 110.21C131.51 112.4 132.54 114.54 133.65 116.65C133.81 116.97 133.98 117.28 134.15 117.6C135.1 119.36 136.15 121.06 137.24 122.75C137.56 123.28 137.89 123.81 138.2 124.25C139.56 126.25 141 128.18 142.53 130.04C157.7 148.41 180.04 158.95 203.84 158.95C231.33 158.95 255.59 144.92 269.86 123.65V159.03H304.52V79.48H304.49C304.49 54.77 324.59 34.66 349.31 34.66C374.03 34.66 394.13 54.76 394.13 79.48H394.16V159.03H428.82V79.48H428.79C428.79 54.77 448.89 34.66 473.61 34.66C498.33 34.66 518.23 54.58 518.41 79.14C518.41 79.25 518.39 79.36 518.39 79.47H518.42V159.02H553.08V79.47C553.08 79.36 553.06 79.25 553.06 79.14C553.24 54.58 573.26 34.66 597.86 34.66C622.46 34.66 642.68 54.76 642.68 79.48C642.68 123.3 678.33 158.95 722.15 158.95V124.29C697.44 124.29 677.33 104.19 677.33 79.47C677.33 54.75 697.43 34.65 722.15 34.65C746.87 34.65 766.97 54.75 766.97 79.47V159.02H801.63V79.47C801.63 35.65 765.98 0 722.16 0H722.11V0.01ZM203.82 124.31C190.4 124.31 177.79 118.36 169.22 107.98C168.36 106.95 167.57 105.87 166.61 104.43L166.1 103.62C165.6 102.84 165.1 102.06 164.64 101.24L163.96 99.91C163.57 99.13 163.17 98.36 162.86 97.65L162.2 96.05C161.9 95.3 161.62 94.53 161.31 93.59L160.85 92.17C160.61 91.33 160.4 90.48 160.05 88.99L159.83 88.02C159.65 87.09 159.53 86.15 159.42 85.27L159.22 83.84C159.08 82.41 159 80.96 159 79.5C159 66.08 164.95 53.47 175.29 44.92C176.34 44.06 177.43 43.25 178.94 42.25L179.73 41.76C180.47 41.28 181.23 40.8 182.11 40.31L183.38 39.66C184.14 39.27 184.91 38.88 185.78 38.5L187.21 37.91C188.01 37.59 188.81 37.29 189.68 37.01L191.14 36.54C191.99 36.29 192.85 36.08 194.17 35.78L195.29 35.53C196.22 35.35 197.16 35.23 198.07 35.11L199.42 34.91C200.87 34.77 202.33 34.69 203.81 34.69C228.52 34.69 248.63 54.79 248.63 79.51C248.63 104.23 228.53 124.33 203.81 124.33V124.31H203.82ZM34.65 79.49C34.65 104.21 54.75 124.3 79.46 124.31C89.77 124.31 99.44 120.92 107.43 114.49C108.72 117.8 110.16 121 111.63 124.1C115.15 131.5 119.79 138.35 125.35 144.37C112 153.81 95.91 158.96 79.46 158.96C35.65 158.96 0 123.31 0 79.49C0 35.67 35.65 0.01 79.47 0.01C102.07 0.01 122.41 9.57 136.88 24.77C133.79 28.59 131.09 32.6 128.59 36.58C124.34 43.34 121.11 50.72 119.02 58.42C111.47 44.3 96.57 34.67 79.47 34.67C54.75 34.67 34.65 54.77 34.65 79.49Z" fill="currentColor"/>
</svg>
