<svg width="308" height="47" viewBox="0 0 308 47" fill="none" xmlns="http://www.w3.org/2000/svg">
<path d="M192.303 46.7616H186.654L189.152 31.3008H196.942L192.303 46.7616Z" fill="black"/>
<g clip-path="url(#clip0_1648_6070)">
<path d="M153.266 6.0387C147.928 6.0387 143.17 8.48581 140.077 12.2874C136.985 8.48581 132.226 6.0387 126.888 6.0387C121.55 6.0387 116.796 8.48373 113.701 12.2811C110.609 8.48373 105.852 6.0387 100.514 6.0387C95.1761 6.0387 90.4175 8.48581 87.3251 12.2874C84.2327 8.48581 79.4741 6.0387 74.136 6.0387C67.2444 6.0387 61.3142 10.1082 58.6993 15.9185C56.0823 10.1082 50.1521 6.0387 43.2604 6.0387C42.7149 6.0387 42.1822 6.06778 41.6091 6.11971C41.4775 6.13218 41.3481 6.15088 41.1103 6.18204C40.7516 6.22774 40.3972 6.27759 40.0533 6.34199C39.8984 6.37107 39.735 6.40639 39.5036 6.4604C39.4399 6.47494 39.3784 6.49156 39.3168 6.5061C39.0515 6.56842 38.7841 6.63282 38.5209 6.7076C38.4042 6.74084 38.2683 6.78447 38.141 6.82393C37.7526 6.9465 37.3663 7.07737 36.9906 7.22694C36.9163 7.25602 36.8484 7.28511 36.7762 7.31419C34.7917 8.13474 32.9643 9.32713 31.3958 10.8644C28.1972 13.9949 26.4355 18.1558 26.4355 22.5827C26.4355 24.795 26.8749 26.9409 27.7154 28.9227C27.7154 28.9248 27.7175 28.929 27.7196 28.931C27.9128 29.386 28.1314 29.8305 28.367 30.2688C28.401 30.3353 28.437 30.3997 28.4731 30.4662C28.6748 30.8318 28.8976 31.185 29.129 31.536C29.1969 31.6461 29.2669 31.7562 29.3327 31.8476C29.6214 32.2631 29.927 32.664 30.2518 33.0504C33.4715 36.8665 38.2132 39.056 43.2646 39.056C49.0993 39.056 54.2485 36.1415 57.2772 31.723V39.0726H64.6337V22.5474H64.6274C64.6274 17.4142 68.8935 13.2367 74.1403 13.2367C79.387 13.2367 83.6532 17.4122 83.6532 22.5474H83.6596V39.0726H91.0161V22.5474H91.0097C91.0097 17.4142 95.2759 13.2367 100.523 13.2367C105.769 13.2367 109.993 17.3748 110.031 22.4767C110.031 22.4996 110.027 22.5224 110.027 22.5453H110.033V39.0705H117.39V22.5453C117.39 22.5224 117.386 22.4996 117.386 22.4767C117.424 17.3748 121.673 13.2367 126.894 13.2367C132.116 13.2367 136.407 17.4122 136.407 22.5474C136.407 31.6503 143.974 39.056 153.275 39.056V31.8559C148.03 31.8559 143.762 27.6805 143.762 22.5453C143.762 17.4101 148.028 13.2346 153.275 13.2346C158.521 13.2346 162.788 17.4101 162.788 22.5453V39.0705H170.144V22.5453C170.144 13.4424 162.577 6.03662 153.277 6.03662L153.266 6.0387ZM43.2604 31.858C40.412 31.858 37.7356 30.622 35.9166 28.4657C35.7341 28.2517 35.5664 28.0274 35.3627 27.7283L35.2544 27.56C35.1483 27.398 35.0422 27.2359 34.9445 27.0656L34.8002 26.7893C34.7174 26.6273 34.6325 26.4673 34.5667 26.3198L34.4267 25.9874C34.363 25.8316 34.3036 25.6717 34.2378 25.4764L34.1401 25.1814C34.0892 25.0069 34.0446 24.8304 33.9703 24.5208L33.9236 24.3193C33.8854 24.1261 33.86 23.9309 33.8366 23.7481L33.7942 23.451C33.7645 23.1539 33.7475 22.8527 33.7475 22.5494C33.7475 19.7616 35.0103 17.1421 37.205 15.366C37.4278 15.1873 37.6592 15.0191 37.9797 14.8113L38.1474 14.7095C38.3044 14.6098 38.4657 14.5101 38.6525 14.4083L38.9221 14.2733C39.0834 14.1923 39.2468 14.1113 39.4315 14.0323L39.735 13.9098C39.9048 13.8433 40.0746 13.781 40.2592 13.7228L40.5691 13.6252C40.7495 13.5732 40.932 13.5296 41.2122 13.4673L41.4499 13.4153C41.6473 13.378 41.8468 13.353 42.04 13.3281L42.3265 13.2866C42.6343 13.2575 42.9442 13.2409 43.2583 13.2409C48.5029 13.2409 52.7712 17.4163 52.7712 22.5515C52.7712 27.6867 48.505 31.8622 43.2583 31.8622L43.2604 31.858Z" fill="black"/>
<path d="M16.8673 31.8584C11.6227 31.8584 7.35437 27.6829 7.35437 22.5477C7.35437 17.4125 11.6205 13.2371 16.8673 13.2371C21.454 13.2371 25.2935 16.432 26.185 20.6677C26.5479 17.5018 27.8044 14.5333 29.8377 12.0447C26.7411 8.38854 22.0886 6.03906 16.8673 6.03906C7.56662 6.03906 0 13.4448 0 22.5477C0 31.6506 7.56662 39.0564 16.8673 39.0564C20.7769 39.0564 24.5889 37.7165 27.5985 35.2839L22.9142 29.7332C21.195 31.123 19.1023 31.8584 16.8652 31.8584H16.8673Z" fill="black"/>
</g>
<path d="M237.103 20.608C237.103 17.9627 236.335 15.808 234.799 14.144C233.263 12.48 231.279 11.648 228.847 11.648C227.013 11.648 225.37 12.032 223.919 12.8C222.469 13.568 221.338 14.5707 220.527 15.808C219.717 17.0453 219.311 18.3893 219.311 19.84V39.04H216.943V9.536H219.311V14.016C219.951 12.6933 221.146 11.6267 222.895 10.816C224.687 9.96267 226.671 9.536 228.847 9.536C231.962 9.536 234.501 10.4747 236.463 12.352C238.469 14.2293 239.471 16.64 239.471 19.584V39.04H237.103V20.608Z" fill="black"/>
<path d="M255.044 37.12C257.306 37.12 259.332 36.5867 261.124 35.52C262.916 34.4107 264.303 32.896 265.284 30.976C266.308 29.0133 266.82 26.7947 266.82 24.32C266.82 21.8453 266.308 19.648 265.284 17.728C264.303 15.7653 262.916 14.2507 261.124 13.184C259.332 12.0747 257.306 11.52 255.044 11.52C252.783 11.52 250.778 12.0747 249.028 13.184C247.279 14.2507 245.914 15.7653 244.932 17.728C243.951 19.648 243.46 21.8453 243.46 24.32C243.46 26.7947 243.951 29.0133 244.932 30.976C245.914 32.896 247.279 34.4107 249.028 35.52C250.778 36.5867 252.783 37.12 255.044 37.12ZM241.092 24.32C241.092 21.4613 241.69 18.9013 242.884 16.64C244.079 14.3787 245.722 12.6293 247.812 11.392C249.946 10.112 252.356 9.472 255.044 9.472C257.775 9.472 260.207 10.112 262.34 11.392C264.474 12.6293 266.138 14.3787 267.332 16.64C268.527 18.9013 269.124 21.4613 269.124 24.32C269.124 27.1787 268.527 29.7387 267.332 32C266.138 34.2613 264.474 36.032 262.34 37.312C260.207 38.5493 257.775 39.168 255.044 39.168C252.356 39.168 249.946 38.5493 247.812 37.312C245.722 36.032 244.079 34.2613 242.884 32C241.69 29.7387 241.092 27.1787 241.092 24.32Z" fill="black"/>
<path d="M272.815 11.584H266.991V9.536H272.815V0H275.119V9.536H282.607V11.584H275.119V39.04H272.815V11.584Z" fill="black"/>
<path d="M294.326 39.104C291.724 39.104 289.398 38.4853 287.35 37.248C285.302 35.968 283.702 34.2187 282.55 32C281.398 29.7387 280.822 27.1787 280.822 24.32C280.822 21.4613 281.398 18.9013 282.55 16.64C283.702 14.3787 285.302 12.6293 287.35 11.392C289.398 10.112 291.724 9.472 294.326 9.472C296.972 9.472 299.126 10.048 300.79 11.2C302.497 12.3093 303.521 13.1627 303.862 13.76C304.246 14.3573 304.886 15.5733 305.782 17.408C306.636 19.4133 307.062 21.9733 307.062 25.088H283.126C283.126 27.392 283.596 29.4613 284.534 31.296C285.516 33.088 286.838 34.496 288.502 35.52C290.209 36.544 292.15 37.056 294.326 37.056C296.588 37.056 298.38 36.672 299.702 35.904C301.068 35.0933 301.9 34.4533 302.198 33.984C302.497 33.5147 302.945 32.6827 303.542 31.488L305.526 32.448C304.716 34.3253 303.393 35.904 301.558 37.184C299.724 38.464 297.313 39.104 294.326 39.104ZM304.758 22.976C304.716 21.0987 304.268 19.264 303.414 17.472C302.604 15.6373 301.409 14.1653 299.83 13.056C298.294 11.9467 296.46 11.4347 294.326 11.52C291.041 11.52 288.353 12.5867 286.262 14.72C284.214 16.8107 283.169 19.5627 283.126 22.976H304.758Z" fill="black"/>
<defs>
<clipPath id="clip0_1648_6070">
<rect width="170.135" height="33.036" fill="white" transform="translate(0 6.03906)"/>
</clipPath>
</defs>
</svg>
