<svg width="323" height="60" viewBox="0 0 323 60" fill="none" xmlns="http://www.w3.org/2000/svg">
<path d="M192.303 48.7226H186.654L189.152 33.2617H196.942L192.303 48.7226Z" fill="black"/>
<g clip-path="url(#clip0_1799_5746)">
<path d="M153.266 7.99964C147.928 7.99964 143.17 10.4467 140.077 14.2483C136.985 10.4467 132.226 7.99964 126.888 7.99964C121.55 7.99964 116.796 10.4447 113.701 14.2421C110.609 10.4447 105.852 7.99964 100.514 7.99964C95.1761 7.99964 90.4175 10.4467 87.3251 14.2483C84.2327 10.4467 79.4741 7.99964 74.136 7.99964C67.2444 7.99964 61.3142 12.0692 58.6993 17.8795C56.0823 12.0692 50.1521 7.99964 43.2604 7.99964C42.7149 7.99964 42.1822 8.02872 41.6091 8.08065C41.4775 8.09312 41.3481 8.11181 41.1103 8.14297C40.7516 8.18867 40.3972 8.23853 40.0533 8.30293C39.8984 8.33201 39.735 8.36733 39.5036 8.42134C39.4399 8.43588 39.3784 8.4525 39.3168 8.46704C39.0515 8.52936 38.7841 8.59376 38.5209 8.66854C38.4042 8.70178 38.2683 8.7454 38.141 8.78487C37.7526 8.90744 37.3663 9.03831 36.9906 9.18788C36.9163 9.21696 36.8484 9.24604 36.7762 9.27513C34.7917 10.0957 32.9643 11.2881 31.3958 12.8253C28.1972 15.9559 26.4355 20.1168 26.4355 24.5436C26.4355 26.756 26.8749 28.9019 27.7154 30.8837C27.7154 30.8857 27.7175 30.8899 27.7196 30.892C27.9128 31.3469 28.1314 31.7915 28.367 32.2298C28.401 32.2963 28.437 32.3607 28.4731 32.4271C28.6748 32.7927 28.8976 33.1459 29.129 33.497C29.1969 33.6071 29.2669 33.7172 29.3327 33.8086C29.6214 34.224 29.927 34.625 30.2518 35.0113C33.4715 38.8274 38.2132 41.0169 43.2646 41.0169C49.0993 41.0169 54.2485 38.1024 57.2772 33.6839V41.0336H64.6337V24.5083H64.6274C64.6274 19.3752 68.8935 15.1976 74.1403 15.1976C79.387 15.1976 83.6532 19.3731 83.6532 24.5083H83.6596V41.0336H91.0161V24.5083H91.0097C91.0097 19.3752 95.2759 15.1976 100.523 15.1976C105.769 15.1976 109.993 19.3357 110.031 24.4377C110.031 24.4605 110.027 24.4834 110.027 24.5062H110.033V41.0315H117.39V24.5062C117.39 24.4834 117.386 24.4605 117.386 24.4377C117.424 19.3357 121.673 15.1976 126.894 15.1976C132.116 15.1976 136.407 19.3731 136.407 24.5083C136.407 33.6112 143.974 41.0169 153.275 41.0169V33.8169C148.03 33.8169 143.762 29.6414 143.762 24.5062C143.762 19.371 148.028 15.1956 153.275 15.1956C158.521 15.1956 162.788 19.371 162.788 24.5062V41.0315H170.144V24.5062C170.144 15.4033 162.577 7.99756 153.277 7.99756L153.266 7.99964ZM43.2604 33.8189C40.412 33.8189 37.7356 32.5829 35.9166 30.4266C35.7341 30.2127 35.5664 29.9883 35.3627 29.6892L35.2544 29.5209C35.1483 29.3589 35.0422 29.1969 34.9445 29.0265L34.8002 28.7502C34.7174 28.5882 34.6325 28.4282 34.5667 28.2807L34.4267 27.9484C34.363 27.7926 34.3036 27.6326 34.2378 27.4373L34.1401 27.1424C34.0892 26.9679 34.0446 26.7913 33.9703 26.4818L33.9236 26.2803C33.8854 26.0871 33.86 25.8918 33.8366 25.709L33.7942 25.4119C33.7645 25.1149 33.7475 24.8137 33.7475 24.5104C33.7475 21.7226 35.0103 19.103 37.205 17.3269C37.4278 17.1483 37.6592 16.98 37.9797 16.7723L38.1474 16.6705C38.3044 16.5708 38.4657 16.471 38.6525 16.3693L38.9221 16.2342C39.0834 16.1532 39.2468 16.0722 39.4315 15.9933L39.735 15.8707C39.9048 15.8042 40.0746 15.7419 40.2592 15.6837L40.5691 15.5861C40.7495 15.5342 40.932 15.4905 41.2122 15.4282L41.4499 15.3763C41.6473 15.3389 41.8468 15.314 42.04 15.289L42.3265 15.2475C42.6343 15.2184 42.9442 15.2018 43.2583 15.2018C48.5029 15.2018 52.7712 19.3773 52.7712 24.5124C52.7712 29.6476 48.505 33.8231 43.2583 33.8231L43.2604 33.8189Z" fill="black"/>
<path d="M16.8673 33.8193C11.6227 33.8193 7.35437 29.6438 7.35437 24.5087C7.35437 19.3735 11.6205 15.198 16.8673 15.198C21.454 15.198 25.2935 18.393 26.185 22.6287C26.5479 19.4628 27.8044 16.4943 29.8377 14.0056C26.7411 10.3495 22.0886 8 16.8673 8C7.56662 8 0 15.4057 0 24.5087C0 33.6116 7.56662 41.0173 16.8673 41.0173C20.7769 41.0173 24.5889 39.6774 27.5985 37.2449L22.9142 31.6942C21.195 33.0839 19.1023 33.8193 16.8652 33.8193H16.8673Z" fill="black"/>
</g>
<path d="M219.304 44.16H242.664V46.208H217V0H219.304V44.16Z" fill="black"/>
<path d="M249.171 16.704V46.208H246.867V16.704H249.171ZM246.163 6.272C246.163 5.67467 246.333 5.20534 246.675 4.864C247.059 4.52267 247.528 4.352 248.083 4.352C248.68 4.352 249.149 4.52267 249.491 4.864C249.832 5.20534 250.003 5.67467 250.003 6.272C250.003 6.82667 249.832 7.296 249.491 7.68C249.149 8.02133 248.68 8.192 248.083 8.192C247.528 8.192 247.059 8.02133 246.675 7.68C246.333 7.296 246.163 6.82667 246.163 6.272Z" fill="black"/>
<path d="M265.713 44.416C267.804 44.416 269.724 43.84 271.473 42.688C273.222 41.536 274.609 39.9787 275.633 38.016C276.657 36.0533 277.169 33.92 277.169 31.616C277.169 29.3547 276.657 27.264 275.633 25.344C274.609 23.3813 273.222 21.824 271.473 20.672C269.724 19.52 267.804 18.944 265.713 18.944C263.622 18.944 261.745 19.4773 260.081 20.544C258.46 21.6107 257.18 23.1253 256.241 25.088C255.345 27.008 254.897 29.184 254.897 31.616C254.897 34.0907 255.345 36.3093 256.241 38.272C257.18 40.192 258.46 41.7067 260.081 42.816C261.745 43.8827 263.622 44.416 265.713 44.416ZM252.529 31.616C252.529 28.7573 253.084 26.2187 254.193 24C255.302 21.7813 256.86 20.0533 258.865 18.816C260.87 17.536 263.153 16.896 265.713 16.896C267.974 16.896 270.193 17.6213 272.369 19.072C274.588 20.5227 276.166 22.272 277.105 24.32V16.704H279.409V44.352C279.409 47.296 278.876 49.92 277.809 52.224C276.742 54.528 275.206 56.32 273.201 57.6C271.238 58.88 268.934 59.52 266.289 59.52C263.857 59.52 261.766 59.1147 260.017 58.304C258.268 57.536 256.646 56.128 255.153 54.08L256.945 52.608C258.225 54.3573 259.59 55.5947 261.041 56.32C262.492 57.0453 264.241 57.408 266.289 57.408C269.574 57.408 272.198 56.1707 274.161 53.696C276.124 51.2213 277.105 48 277.105 44.032V38.784C276.38 41.0453 274.95 42.9013 272.817 44.352C270.726 45.8027 268.358 46.528 265.713 46.528C263.153 46.528 260.87 45.888 258.865 44.608C256.86 43.328 255.302 41.5573 254.193 39.296C253.084 37.0347 252.529 34.4747 252.529 31.616Z" fill="black"/>
<path d="M303.851 28.928C303.851 26.0267 303.083 23.6587 301.547 21.824C300.053 19.9893 298.133 19.072 295.786 19.072C293.994 19.072 292.373 19.5627 290.923 20.544C289.472 21.5253 288.32 22.912 287.466 24.704C286.656 26.4533 286.25 28.4373 286.25 30.656V46.208H283.947V1.28H286.25V23.104C286.976 21.3973 288.149 19.9467 289.771 18.752C291.392 17.5573 293.397 16.96 295.786 16.96C297.792 16.96 299.584 17.4933 301.162 18.56C302.741 19.584 303.957 21.0347 304.811 22.912C305.706 24.7467 306.155 26.8587 306.155 29.248V46.208H303.851V28.928Z" fill="black"/>
<path d="M312.71 18.752H306.886V16.704H312.71V7.168H315.014V16.704H322.502V18.752H315.014V46.208H312.71V18.752Z" fill="black"/>
<defs>
<clipPath id="clip0_1799_5746">
<rect width="170.135" height="33.036" fill="white" transform="translate(0 8)"/>
</clipPath>
</defs>
</svg>
