<svg width="331" height="45" viewBox="0 0 331 45" fill="none" xmlns="http://www.w3.org/2000/svg">
<path d="M230.41 29.7093C232.571 29.7093 234.477 29.1797 236.13 28.1205C237.824 27.0189 239.138 25.4936 240.07 23.5446C241.002 21.5957 241.468 19.3925 241.468 16.9351C241.468 14.4777 241.002 12.2957 240.07 10.3891C239.138 8.48246 237.824 6.99954 236.13 5.94032C234.477 4.83872 232.571 4.28793 230.41 4.28793C228.503 4.28793 226.703 4.85991 225.008 6.00387C223.313 7.14783 221.957 8.6943 220.94 10.6433C219.923 12.5923 219.415 14.6895 219.415 16.9351C219.415 19.223 219.923 21.3626 220.94 23.354C221.957 25.303 223.313 26.8494 225.008 27.9934C226.703 29.1373 228.503 29.7093 230.41 29.7093ZM217 2.06355H219.351V9.62642C220.368 7.55034 221.894 5.81321 223.927 4.41503C225.961 2.97449 228.143 2.25421 230.473 2.25421C233.058 2.25421 235.346 2.88975 237.337 4.16082C239.371 5.38952 240.96 7.12665 242.104 9.37221C243.248 11.5754 243.82 14.0964 243.82 16.9351C243.82 19.8162 243.248 22.3795 242.104 24.625C240.96 26.8706 239.371 28.6289 237.337 29.9C235.346 31.1287 233.058 31.743 230.473 31.743C227.889 31.743 225.601 31.0016 223.61 29.5187C221.661 27.9934 220.241 26.2563 219.351 24.3073V44.5808H217V2.06355Z" fill="black"/>
<path d="M258.914 31.6159C256.329 31.6159 254.02 31.0016 251.986 29.7729C249.995 28.5018 248.427 26.7435 247.283 24.4979C246.139 22.2524 245.567 19.7102 245.567 16.8715C245.567 14.0328 246.139 11.4907 247.283 9.2451C248.427 6.99954 249.995 5.26241 251.986 4.03371C254.02 2.76264 256.329 2.12711 258.914 2.12711C261.413 2.12711 263.638 2.80501 265.587 4.16082C267.536 5.47426 268.998 7.21139 269.972 9.37221V2.06355H272.26V31.3617H269.972V24.3708C269.125 26.2351 267.705 27.9086 265.714 29.3916C263.723 30.8745 261.456 31.6159 258.914 31.6159ZM247.919 16.8715C247.919 19.3289 248.385 21.5321 249.317 23.4811C250.249 25.3877 251.541 26.8706 253.194 27.9298C254.889 28.9891 256.795 29.5187 258.914 29.5187C260.863 29.5187 262.685 28.9891 264.379 27.9298C266.074 26.8282 267.43 25.303 268.447 23.354C269.464 21.405 269.972 19.2442 269.972 16.8715C269.972 14.4989 269.464 12.338 268.447 10.3891C267.43 8.44009 266.074 6.93599 264.379 5.87676C262.685 4.77517 260.863 4.22437 258.914 4.22437C256.795 4.22437 254.889 4.77517 253.194 5.87676C251.541 6.93599 250.249 8.4189 249.317 10.3255C248.385 12.2321 247.919 14.4141 247.919 16.8715Z" fill="black"/>
<path d="M288.94 29.5822C291.016 29.5822 292.923 29.0102 294.66 27.8663C296.397 26.7223 297.774 25.1758 298.791 23.2269C299.808 21.2779 300.316 19.1594 300.316 16.8715C300.316 14.626 299.808 12.5499 298.791 10.6433C297.774 8.6943 296.397 7.14783 294.66 6.00387C292.923 4.85991 291.016 4.28793 288.94 4.28793C286.864 4.28793 285 4.81754 283.347 5.87676C281.737 6.93599 280.466 8.44009 279.534 10.3891C278.644 12.2957 278.199 14.4565 278.199 16.8715C278.199 19.3289 278.644 21.5321 279.534 23.4811C280.466 25.3877 281.737 26.8918 283.347 27.9934C285 29.0526 286.864 29.5822 288.94 29.5822ZM275.848 16.8715C275.848 14.0328 276.399 11.5118 277.5 9.30865C278.602 7.10546 280.148 5.38952 282.14 4.16082C284.131 2.88975 286.398 2.25421 288.94 2.25421C291.185 2.25421 293.389 2.97449 295.549 4.41503C297.753 5.85558 299.32 7.59271 300.252 9.62642V2.06355H302.54V29.5187C302.54 32.4421 302.011 35.0478 300.951 37.3358C299.892 39.6237 298.367 41.4032 296.376 42.6742C294.427 43.9453 292.139 44.5808 289.512 44.5808C287.097 44.5808 285.021 44.1783 283.284 43.3733C281.546 42.6107 279.936 41.2125 278.453 39.1788L280.233 37.7171C281.504 39.4542 282.86 40.6829 284.3 41.4032C285.741 42.1234 287.478 42.4836 289.512 42.4836C292.774 42.4836 295.38 41.2549 297.329 38.7975C299.278 36.3401 300.252 33.1412 300.252 29.2009V23.9895C299.532 26.2351 298.113 28.0781 295.994 29.5187C293.918 30.9592 291.567 31.6795 288.94 31.6795C286.398 31.6795 284.131 31.044 282.14 29.7729C280.148 28.5018 278.602 26.7435 277.5 24.4979C276.399 22.2524 275.848 19.7102 275.848 16.8715Z" fill="black"/>
<path d="M318.235 31.4253C315.65 31.4253 313.341 30.8109 311.307 29.5822C309.274 28.3112 307.685 26.574 306.541 24.3708C305.397 22.1253 304.825 19.5831 304.825 16.7444C304.825 13.9057 305.397 11.3635 306.541 9.11799C307.685 6.87243 309.274 5.13531 311.307 3.90661C313.341 2.63554 315.65 2 318.235 2C320.862 2 323.001 2.57198 324.654 3.71594C326.348 4.81754 327.365 5.66492 327.704 6.25809C328.085 6.85125 328.721 8.05877 329.611 9.88063C330.458 11.872 330.882 14.4141 330.882 17.5071H307.113C307.113 19.795 307.579 21.8499 308.511 23.6717C309.485 25.4512 310.799 26.8494 312.451 27.8663C314.146 28.8831 316.074 29.3916 318.235 29.3916C320.48 29.3916 322.26 29.0102 323.573 28.2476C324.929 27.4426 325.755 26.8071 326.052 26.341C326.348 25.8749 326.793 25.0487 327.386 23.8624L329.357 24.8157C328.552 26.6799 327.238 28.2476 325.416 29.5187C323.594 30.7897 321.2 31.4253 318.235 31.4253ZM328.594 15.4098C328.552 13.5456 328.107 11.7237 327.259 9.94419C326.454 8.12232 325.268 6.66059 323.7 5.559C322.175 4.4574 320.353 3.94897 318.235 4.03371C314.972 4.03371 312.303 5.09294 310.227 7.21139C308.193 9.28747 307.155 12.0203 307.113 15.4098H328.594Z" fill="black"/>
<path d="M192.303 40.7226H186.654L189.152 25.2617H196.942L192.303 40.7226Z" fill="black"/>
<g clip-path="url(#clip0_1817_5723)">
<path d="M153.266 -0.000364062C147.928 -0.000364062 143.17 2.44675 140.077 6.24829C136.985 2.44675 132.226 -0.000364062 126.888 -0.000364062C121.55 -0.000364062 116.796 2.44467 113.701 6.24206C110.609 2.44467 105.852 -0.000364062 100.514 -0.000364062C95.1761 -0.000364062 90.4175 2.44675 87.3251 6.24829C84.2327 2.44675 79.4741 -0.000364062 74.136 -0.000364062C67.2444 -0.000364062 61.3142 4.06915 58.6993 9.87949C56.0823 4.06915 50.1521 -0.000364062 43.2604 -0.000364062C42.7149 -0.000364062 42.1822 0.0287188 41.6091 0.0806524C41.4775 0.0931164 41.3481 0.111813 41.1103 0.142973C40.7516 0.188674 40.3972 0.238531 40.0533 0.302928C39.8984 0.332011 39.735 0.367326 39.5036 0.421337C39.4399 0.435878 39.3784 0.452497 39.3168 0.467038C39.0515 0.529359 38.7841 0.593756 38.5209 0.668541C38.4042 0.701778 38.2683 0.745403 38.141 0.784872C37.7526 0.907435 37.3663 1.03831 36.9906 1.18788C36.9163 1.21696 36.8484 1.24604 36.7762 1.27513C34.7917 2.09568 32.9643 3.28807 31.3958 4.82531C28.1972 7.95586 26.4355 12.1168 26.4355 16.5436C26.4355 18.756 26.8749 20.9019 27.7154 22.8837C27.7154 22.8857 27.7175 22.8899 27.7196 22.892C27.9128 23.3469 28.1314 23.7915 28.367 24.2298C28.401 24.2963 28.437 24.3607 28.4731 24.4271C28.6748 24.7927 28.8976 25.1459 29.129 25.497C29.1969 25.6071 29.2669 25.7172 29.3327 25.8086C29.6214 26.224 29.927 26.625 30.2518 27.0113C33.4715 30.8274 38.2132 33.0169 43.2646 33.0169C49.0993 33.0169 54.2485 30.1024 57.2772 25.6839V33.0336H64.6337V16.5083H64.6274C64.6274 11.3752 68.8935 7.19763 74.1403 7.19763C79.387 7.19763 83.6532 11.3731 83.6532 16.5083H83.6596V33.0336H91.0161V16.5083H91.0097C91.0097 11.3752 95.2759 7.19763 100.523 7.19763C105.769 7.19763 109.993 11.3357 110.031 16.4377C110.031 16.4605 110.027 16.4834 110.027 16.5062H110.033V33.0315H117.39V16.5062C117.39 16.4834 117.386 16.4605 117.386 16.4377C117.424 11.3357 121.673 7.19763 126.894 7.19763C132.116 7.19763 136.407 11.3731 136.407 16.5083C136.407 25.6112 143.974 33.0169 153.275 33.0169V25.8169C148.03 25.8169 143.762 21.6414 143.762 16.5062C143.762 11.371 148.028 7.19556 153.275 7.19556C158.521 7.19556 162.788 11.371 162.788 16.5062V33.0315H170.144V16.5062C170.144 7.40329 162.577 -0.00244141 153.277 -0.00244141L153.266 -0.000364062ZM43.2604 25.8189C40.412 25.8189 37.7356 24.5829 35.9166 22.4266C35.7341 22.2127 35.5664 21.9883 35.3627 21.6892L35.2544 21.5209C35.1483 21.3589 35.0422 21.1969 34.9445 21.0265L34.8002 20.7502C34.7174 20.5882 34.6325 20.4282 34.5667 20.2807L34.4267 19.9484C34.363 19.7926 34.3036 19.6326 34.2378 19.4373L34.1401 19.1424C34.0892 18.9679 34.0446 18.7913 33.9703 18.4818L33.9236 18.2803C33.8854 18.0871 33.86 17.8918 33.8366 17.709L33.7942 17.4119C33.7645 17.1149 33.7475 16.8137 33.7475 16.5104C33.7475 13.7226 35.0103 11.103 37.205 9.32691C37.4278 9.14826 37.6592 8.97999 37.9797 8.77226L38.1474 8.67047C38.3044 8.57076 38.4657 8.47105 38.6525 8.36926L38.9221 8.23423C39.0834 8.15321 39.2468 8.0722 39.4315 7.99326L39.735 7.87069C39.9048 7.80422 40.0746 7.7419 40.2592 7.68373L40.5691 7.5861C40.7495 7.53416 40.932 7.49054 41.2122 7.42822L41.4499 7.37629C41.6473 7.33889 41.8468 7.31397 42.04 7.28904L42.3265 7.24749C42.6343 7.21841 42.9442 7.20179 43.2583 7.20179C48.5029 7.20179 52.7712 11.3773 52.7712 16.5124C52.7712 21.6476 48.505 25.8231 43.2583 25.8231L43.2604 25.8189Z" fill="black"/>
<path d="M16.8673 25.8193C11.6227 25.8193 7.35437 21.6438 7.35437 16.5087C7.35437 11.3735 11.6205 7.198 16.8673 7.198C21.454 7.198 25.2935 10.393 26.185 14.6287C26.5479 11.4628 27.8044 8.49426 29.8377 6.0056C26.7411 2.34948 22.0886 0 16.8673 0C7.56662 0 0 7.40573 0 16.5087C0 25.6116 7.56662 33.0173 16.8673 33.0173C20.7769 33.0173 24.5889 31.6774 27.5985 29.2449L22.9142 23.6942C21.195 25.0839 19.1023 25.8193 16.8652 25.8193H16.8673Z" fill="black"/>
</g>
<defs>
<clipPath id="clip0_1817_5723">
<rect width="170.135" height="33.036" fill="white"/>
</clipPath>
</defs>
</svg>
