<?xml version="1.0" encoding="UTF-8"?><svg id="Layer_2" xmlns="http://www.w3.org/2000/svg" width="54.4839" height="54.4014" viewBox="0 0 54.4839 54.4014"><defs><style>.cls-1{fill:#e8e8e8;}</style></defs><g id="_29"><path class="cls-1" d="M27.20071,0C12.2354,0,0,12.1504,0,27.1992c0,15.0479,12.2354,27.2022,27.20071,27.2022,15.04689,0,27.28319-12.1543,27.28319-27.2022C54.4839,12.1504,42.2476,0,27.20071,0h0ZM27.20071,52.25h0c-13.80761,0-24.96971-11.1592-24.96971-25.0508C2.231,13.3936,13.3931,2.1475,27.20071,2.1475s25.04979,11.2461,25.04979,25.0517c0,13.8916-11.2422,25.0508-25.04979,25.0508h0ZM13.4751,31.9951h0l28.7725.083c-1.8174,6.2012-7.5225,10.7471-14.3848,10.7471-6.7808,0-12.5689-4.5459-14.3877-10.8301h0ZM14.30271,18.8496h0c0-1.2412,1.15819-2.2324,2.64459-2.2324,1.3237,0,1.9858.5791,2.5639,1.7353.7432-1.1562,1.4058-1.7353,2.729-1.7353,1.4058,0,2.563.9912,2.563,2.2324,0,2.1475-2.563,4.2988-5.292,6.5322-2.5639-2.2334-5.20849-4.3847-5.20849-6.5322h0ZM30.8374,18.8496h0c0-1.2412,1.1582-2.2324,2.5625-2.2324,1.4072,0,1.9854.5791,2.7285,1.7353.5811-1.1562,1.2422-1.7353,2.5635-1.7353,1.4902,0,2.6475.9912,2.6475,2.2324,0,2.1475-2.6475,4.2988-5.211,6.5322-2.7285-2.2334-5.291-4.3847-5.291-6.5322h0Z"/></g></svg>