<?xml version="1.0" encoding="UTF-8"?><svg id="Layer_2" xmlns="http://www.w3.org/2000/svg" width="54.4043" height="54.4014" viewBox="0 0 54.4043 54.4014"><defs><style>.cls-1{fill:#e8e8e8;}</style></defs><g id="_29"><path class="cls-1" d="M27.2022,0C12.2364,0,0,12.1504,0,27.1992c0,15.0479,12.2364,27.2022,27.2022,27.2022,15.0459,0,27.2021-12.1543,27.2021-27.2022C54.4043,12.1504,42.2481,0,27.2022,0h0ZM27.2022,52.25h0c-13.8086,0-25.0547-11.1592-25.0547-25.0508C2.1475,13.3936,13.3936,2.1475,27.2022,2.1475c13.8057,0,25.0517,11.2461,25.0517,25.0517,0,13.8916-11.246,25.0508-25.0517,25.0508h0ZM13.8887,21.0811h0c0-2.3164,1.9033-4.2159,4.2178-4.2159,2.3174,0,4.2168,1.8995,4.2168,4.2159,0,2.2334-1.8994,4.1357-4.2168,4.1357-2.3145,0-4.2178-1.9023-4.2178-4.1357h0ZM31.9131,21.0811h0c0-2.3164,1.8203-4.2159,4.13672-4.2159,2.39458,0,4.21588,1.8995,4.21588,4.2159,0,2.2334-1.8213,4.1357-4.21588,4.1357-2.31642,0-4.13672-1.9023-4.13672-4.1357h0Z"/></g></svg>