<?xml version="1.0" encoding="UTF-8"?><svg id="Layer_2" xmlns="http://www.w3.org/2000/svg" width="54.3204" height="54.4043" viewBox="0 0 54.3204 54.4043"><defs><style>.cls-1{fill:#e8e8e8;}</style></defs><g id="_29"><path class="cls-1" d="M27.1202,0C12.1543,0,0,12.1538,0,27.2022s12.1543,27.2021,27.1202,27.2021c15.1284,0,27.2002-12.1538,27.2002-27.2021S42.2486,0,27.1202,0h0ZM27.1202,52.2539h0c-13.8077,0-24.9707-11.1601-24.9707-25.0517C2.1495,13.4785,13.3125,2.1504,27.1202,2.1504c13.8896,0,25.1342,11.3281,25.1342,25.0518,0,13.8916-11.2446,25.0517-25.1342,25.0517h0ZM14.3858,20.5054h0c0-2.3154,1.9033-4.1323,4.1348-4.1323,2.3984,0,4.2172,1.8169,4.2172,4.1323,0,2.3159-1.8188,4.1333-4.2172,4.1333-2.2315,0-4.1348-1.8174-4.1348-4.1333h0ZM32.4107,20.5054h0c0-2.3154,1.8188-4.1323,4.2173-4.1323,2.3144,0,4.1347,1.8169,4.1347,4.1323,0,2.3159-1.8203,4.1333-4.1347,4.1333-2.3985,0-4.2173-1.8174-4.2173-4.1333h0ZM41.8365,42.7461h0c-3.2246-4.5459-8.5157-7.5224-14.3867-7.5224-6.0352,0-11.2437,2.9765-14.4678,7.6049,1.9013-6.2837,7.6054-10.8295,14.4678-10.8295,6.7797-.0826,12.4853,4.4633,14.3867,10.747h0Z"/></g></svg>