<?xml version="1.0" encoding="UTF-8"?><svg id="Layer_2" xmlns="http://www.w3.org/2000/svg" width="54.4839" height="54.4043" viewBox="0 0 54.4839 54.4043"><defs><style>.cls-1{fill:#e8e8e8;}</style></defs><g id="_29"><path class="cls-1" d="M27.20071,0C12.2354,0,0,12.1543,0,27.2021c0,15.0488,12.2354,27.2022,27.20071,27.2022,15.04689,0,27.28319-12.1534,27.28319-27.2022C54.4839,12.1543,42.2476,0,27.20071,0h0ZM27.20071,52.2539h0c-13.80761,0-24.96971-11.2451-24.96971-25.0518C2.231,13.3115,13.3931,2.1504,27.20071,2.1504c13.88959,0,25.04979,11.1611,25.04979,25.0517,0,13.8067-11.1602,25.0518-25.04979,25.0518h0ZM18.6025,24.6386h0c-2.3159,0-4.2172-1.8994-4.2172-4.1328,0-2.3154,1.9013-4.2178,4.2172-4.2178,2.397,0,4.2159,1.9024,4.2159,4.2178,0,2.2334-1.8189,4.1328-4.2159,4.1328h0ZM40.8423,20.5058h0c0,2.2334-1.9024,4.1328-4.1328,4.1328-2.3975,0-4.21779-1.8994-4.21779-4.1328,0-2.3154,1.82029-4.2178,4.21779-4.2178,2.2304,0,4.1328,1.9024,4.1328,4.2178h0ZM37.2886,39.1914h0c0,5.1279-4.2188,9.3427-9.2608,9.3427-5.2094,0-9.4253-4.2148-9.4253-9.3427,0-5.209,4.2159-9.3438,9.4253-9.3438,5.042,0,9.2608,4.1348,9.2608,9.3438h0Z"/></g></svg>