<?xml version="1.0" encoding="UTF-8"?><svg id="Layer_2" xmlns="http://www.w3.org/2000/svg" width="54.3204" height="54.4013" viewBox="0 0 54.3204 54.4013"><defs><style>.cls-1{fill:#e8e8e8;}</style></defs><g id="_29"><path class="cls-1" d="M27.1202,0C12.1543,0,0,12.1542,0,27.2851c0,14.9619,12.1543,27.1162,27.1202,27.1162,15.0459,0,27.2002-12.1543,27.2002-27.1162C54.3204,12.1542,42.1661,0,27.1202,0h0ZM27.1202,52.2539h0c-13.8077,0-24.9707-11.1631-24.9707-24.9688C2.1495,13.3935,13.3125,2.1474,27.1202,2.1474c13.8896,0,25.0512,11.2461,25.0512,25.1377,0,13.8057-11.1616,24.9688-25.0512,24.9688h0ZM15.544,34.7255h23.1504v3.2237H15.544v-3.2237ZM20.0088,21.414h0l-5.373-1.7373.6601-2.0674,4.7955,1.4893,4.9619-1.1572.4131,2.2314-5.4576,1.2412ZM39.274,17.9414h0l.4126,2.2314-5.4571,1.2412-5.456-1.7373.7436-2.0674,4.7964,1.4893,4.9605-1.1572Z"/></g></svg>