<?xml version="1.0" encoding="UTF-8"?><svg id="Layer_2" xmlns="http://www.w3.org/2000/svg" width="54.4023" height="54.4043" viewBox="0 0 54.4023 54.4043"><defs><style>.cls-1{fill:#e8e8e8;}</style></defs><g id="_29"><path class="cls-1" d="M27.1162,0C12.1514,0,0,12.1543,0,27.2021c0,15.0488,12.1514,27.2022,27.1162,27.2022,15.0488,0,27.2861-12.1534,27.2861-27.2022C54.4023,12.1543,42.165,0,27.1162,0h0ZM27.1162,52.2539h0c-13.8057,0-24.9688-11.1621-24.9688-25.0518C2.1474,13.3964,13.3105,2.1504,27.1162,2.1504c13.8926,0,25.05472,11.246,25.05472,25.0517,0,13.8897-11.16212,25.0518-25.05472,25.0518h0ZM18.6006,24.6386h0c-2.3965,0-4.2168-1.8994-4.2168-4.1328,0-2.3154,1.8203-4.2178,4.2168-4.2178,2.3154,0,4.1357,1.9024,4.1357,4.2178,0,2.2334-1.8203,4.1328-4.1357,4.1328h0ZM40.7607,20.5058h0c0,2.2334-1.9033,4.1328-4.2177,4.1328-2.3165,0-4.1348-1.8994-4.1348-4.1328,0-2.3154,1.8183-4.2178,4.1348-4.2178,2.3144,0,4.2177,1.9024,4.2177,4.2178h0ZM35.6338,33.7343h0l-5.7051,4.2159,5.54,4.4668-1.5732,1.9023-6.0322-4.8799-6.2842,4.6289-1.49018-1.9834,5.79-4.2177-5.54-4.4639,1.48528-1.9033,6.1182,4.8798,6.2841-4.6318,1.4073,1.9863Z"/></g></svg>